<svg id="Confitty" version="1.2" xmlns="http://www.w3.org/2000/svg" viewBox="0 0 256 256" width="256" height="256">
    <title>Confitty</title>
    
    <style>
        /* === Background and Frame === */
        .s0  { fill: #FDF8F9; } /* Inner Background: Soft Cream/Blush */
        .s1  { fill: #5A4D50; } /* Frame: Deep Dusty Mauve */
        
        /* === Main Character: Cat === */
        .s2  { fill: #7ED56F; } /* Eyes/Inner Ears: Vibrant Green */
        .s3  { fill: #FFB7C5; } /* Main Body: Pastel Pink */
        .s4  { fill: #8C6B73; } /* Whiskers/Details: Dusty Rose */
        .s5  { fill: #FFD1DC; } /* Paws/Hands: Light Pastel Pink */
        
        /* === Confetti: Pink === */
        .s6  { fill: #FF9CEE; } 
        .s7  { fill: #FF9CEE; opacity: 0.9; } 
        .s8  { fill: none; stroke: #FF9CEE; stroke-linecap: round; stroke-width: 4; } 
        
        /* === Confetti: Yellow/Gold === */
        .s9  { fill: #FDFD96; } 
        .s10 { fill: #FDFD96; opacity: 0.9; } 
        .s11 { fill: none; stroke: #FDFD96; stroke-linecap: round; stroke-width: 5; } 
        .s12 { fill: none; stroke: #FDFD96; stroke-linecap: round; stroke-width: 4; } 
        
        /* === Confetti: Green === */
        .s13 { fill: #C1E1C1; } 
        .s14 { fill: #C1E1C1; opacity: 0.9; } 
        .s15 { fill: none; stroke: #C1E1C1; stroke-linecap: round; stroke-width: 5; } 
        
        /* === Confetti: Purple === */
        .s16 { fill: #CBAACB; } 
        .s17 { fill: none; stroke: #CBAACB; stroke-linecap: round; stroke-width: 4; } 
        
        /* === Confetti: Blue === */
        .s18 { fill: #AEC6CF; } 
        .s19 { fill: none; stroke: #AEC6CF; stroke-linecap: round; stroke-width: 5; } 
        .s20 { fill: none; stroke: #AEC6CF; stroke-linecap: round; stroke-width: 4; } 
    </style>
    
    <g id="artwork">
        
        <g id="canvas-base">
            <path fill-rule="evenodd" class="s0" d="m77.68 40.29h107.14v172.32h-107.14z" />
            <path class="s1" d="m72.42 231.84h111.16q1.5 0 2.88-0.58 1.39-0.57 2.45-1.63 1.05-1.06 1.63-2.44 0.57-1.39 0.57-2.89v-111.15q0-1.5-0.57-2.89-0.58-1.38-1.63-2.44-1.07-1.06-2.45-1.64-1.38-0.57-2.88-0.57h-111.16q-1.5 0-2.88 0.57-1.38 0.58-2.45 1.64-1.05 1.06-1.63 2.44-0.57 1.39-0.57 2.89v111.15q0 1.5 0.57 2.88 0.58 1.39 1.63 2.45 1.07 1.06 2.45 1.63 1.38 0.57 2.88 0.58zm59.54-40.91h39.94c1.2 0 2.35 0.48 3.19 1.33 0.85 0.84 1.33 1.99 1.33 3.19 0 1.2-0.48 2.35-1.33 3.2-0.84 0.85-1.99 1.32-3.19 1.32h-39.94c-1.2 0-2.35-0.47-3.2-1.32-0.85-0.85-1.32-2-1.32-3.2 0-1.2 0.47-2.35 1.32-3.19 0.85-0.85 2-1.33 3.2-1.33zm-48.04-48.76c-0.79-0.85-1.22-1.99-1.2-3.16 0.02-1.16 0.5-2.28 1.32-3.11 0.83-0.82 1.95-1.3 3.11-1.32 1.17-0.02 2.31 0.41 3.16 1.2l28.25 28.23q0.63 0.64 0.98 1.47 0.34 0.83 0.34 1.73 0 0.9-0.34 1.73-0.35 0.83-0.98 1.46l-28.25 28.25c-0.85 0.8-1.99 1.24-3.16 1.22-1.17-0.02-2.29-0.5-3.12-1.33-0.83-0.83-1.31-1.94-1.33-3.12-0.02-1.17 0.42-2.31 1.22-3.16l25.05-25.05z" />
        </g>
        
        <g id="cat">
            <g id="cat-eyes-ears">
                <path fill-rule="evenodd" class="s2" d="m102.49 91.5c2.01 0 3.61-3.81 3.61-8.71 0-4.91-1.6-8.72-3.61-8.72-2 0-3.61 3.81-3.61 8.72 0 4.9 1.6 8.71 3.61 8.71z" />
                <path fill-rule="evenodd" class="s2" d="m153.11 91.5c2.01 0 3.61-3.81 3.61-8.71 0-4.91-1.6-8.72-3.61-8.72-2 0-3.61 3.81-3.61 8.72 0 4.9 1.61 8.71 3.61 8.71z" />
            </g>
            
            <g id="cat-body">
                <path fill-rule="evenodd" class="s3" d="m193.2 66.73c0.82 3.27 1.37 6.54 1.37 10.08 0 10.62-4.63 20.97-12.53 29.14h-44.93c1.08-2.72-0.55-4.09-8.72-4.36-8.17 0-10.07 1.64-8.71 4.36h-44.94c-7.89-8.17-12.52-18.25-12.52-29.14 0-3.54 0.54-6.81 1.36-10.08-10.08-12.52-18.52-35.12-13.62-40.57 4.63-5.45 27.23 1.09 40.85 9.53 10.62-5.45 23.42-8.71 37.31-8.71 13.62 0 26.41 3.26 37.04 8.71 13.61-8.44 35.94-14.7 40.84-9.53 4.9 5.17-3.27 28.05-12.8 40.57zm-73.25 13.89c0-9.53-7.9-17.43-17.43-17.43-9.53 0-17.43 7.9-17.43 17.43 0 9.53 7.9 17.43 17.43 17.43 9.53 0 17.43-7.89 17.43-17.43zm51.2 0c0-9.53-7.9-17.43-17.43-17.43-9.53 0-17.43 7.9-17.43 17.43 0 9.53 7.9 17.43 17.43 17.43 9.8 0 17.43-7.89 17.43-17.43z" />
            </g>
            
            <g id="cat-whiskers">
                <path fill-rule="evenodd" class="s4" d="m179.74 96.96c16.34-20.42 49.84-30.23 72.17-16.06-26.15-4.09-49.84 2.72-72.17 16.06z" />
                <path fill-rule="evenodd" class="s4" d="m237.47 63.74c-22.05-7.62-49.56 6.54-58.82 28.32 16.89-16.34 35.68-25.33 58.82-28.32zm6.54 34.31c-11.44-16.88-48.75-11.44-65.63 4.63 22.33-8.71 42.48-11.98 65.63-4.63z" />
                <path fill-rule="evenodd" class="s4" d="m76.26 96.96c-16.34-20.42-49.84-30.23-72.17-16.06 26.15-4.09 49.84 2.72 72.17 16.06z" />
                <path fill-rule="evenodd" class="s4" d="m77.35 92.06c-9.26-21.78-36.77-35.94-58.82-28.32 23.14 2.99 41.93 11.98 58.82 28.32zm0.27 10.62c-16.88-16.07-54.19-21.51-65.63-4.63 23.15-7.35 43.3-4.08 65.63 4.63z" />
            </g>
            
            <g id="cat-paws">
                <path fill-rule="evenodd" class="s5" d="m71.08 95.6h0.82c7.63 0 14.71 5.45 13.62 12.26-1.64 10.07-12.26 11.16-18.79 11.43-4.36 8.45-16.07 7.9-21.52 0-8.98 3.27-18.79-1.9-18.79-11.43 0-6.81 6.27-12.26 13.62-12.26h0.82c2.72-5.44 8.44-8.99 15.25-8.99 6.81 0 12.8 3.54 14.97 8.99zm128.81-8.99c6.81 0 12.53 3.55 15.25 8.99h0.82c3.81 0 13.62 5.45 13.62 12.26 0 9.53-9.81 14.7-18.79 11.43-5.45 7.9-17.16 8.45-21.52 0-6.53-0.27-17.15-1.36-18.79-11.43-1.09-6.81 9.81-12.26 13.62-12.26h0.82c2.17-5.45 8.17-8.99 14.97-8.99z" />
            </g>
        </g>
        
        <g id="confetti-layer">
            <g id="confetti-pink">
                <path fill-rule="evenodd" class="s6" d="m34.4 36.44l1.74 1.74c0.48 0.48 0.48 1.26 0 1.74l-6.96 6.96c-0.48 0.48-1.26 0.48-1.74 0l-1.74-1.74c-0.48-0.48-0.48-1.26 0-1.74l6.96-6.96c0.48-0.48 1.26-0.48 1.74 0z" />
                <path fill-rule="evenodd" class="s6" d="m120.72 29.36c-1.7 0-3.08-1.38-3.08-3.08 0-1.7 1.38-3.07 3.08-3.07 1.7 0 3.08 1.37 3.08 3.07 0 1.7-1.38 3.08-3.08 3.08z" />
                <path fill-rule="evenodd" class="s6" d="m223.07 68.17l3.2-1.84c0.59-0.34 1.34-0.14 1.68 0.45l6.15 10.65c0.34 0.59 0.14 1.34-0.45 1.68l-3.2 1.85c-0.59 0.34-1.34 0.14-1.68-0.45l-6.15-10.66c-0.34-0.59-0.14-1.34 0.45-1.68z" />
                <path fill-rule="evenodd" class="s7" d="m83.82 137.61c-2.05 0-3.7-1.65-3.7-3.69 0-2.04 1.65-3.69 3.7-3.69 2.04 0 3.69 1.65 3.69 3.69 0 2.04-1.65 3.69-3.69 3.69z" />
                <path fill-rule="evenodd" class="s6" d="m171.02 210.22l0.84 2.31c0.23 0.64-0.1 1.34-0.74 1.58l-8.09 2.94c-0.64 0.23-1.34-0.1-1.57-0.73l-0.85-2.32c-0.23-0.63 0.1-1.34 0.74-1.57l8.09-2.95c0.64-0.23 1.35 0.1 1.58 0.74z" />
                <path fill-rule="evenodd" class="s6" d="m54.18 183.27l3.55 10.51-11.88-3.19z" />
                <path class="s8" d="m206.83 183.13q-12.3 12.3-6.15 24.6 6.15 12.3-12.3 6.15" />
            </g>
            <g id="confetti-gold">
                <path fill-rule="evenodd" class="s9" d="m77.19 20.68l2.37-0.64c0.66-0.17 1.33 0.22 1.51 0.87l2.86 10.7c0.18 0.65-0.21 1.33-0.87 1.5l-2.37 0.64c-0.66 0.18-1.33-0.21-1.51-0.87l-2.86-10.69c-0.18-0.66 0.21-1.34 0.87-1.51z" />
                <path fill-rule="evenodd" class="s9" d="m188.38 45.35c-2.04 0-3.69-1.65-3.69-3.69 0-2.04 1.65-3.69 3.69-3.69 2.04 0 3.69 1.65 3.69 3.69 0 2.04-1.65 3.69-3.69 3.69z" />
                <path fill-rule="evenodd" class="s9" d="m40.27 90.58l2.46 4.26c0.34 0.59 0.13 1.34-0.45 1.68l-4.27 2.46c-0.58 0.34-1.34 0.14-1.68-0.45l-2.46-4.26c-0.34-0.59-0.14-1.34 0.45-1.68l4.26-2.46c0.59-0.34 1.35-0.14 1.69 0.45z" />
                <path fill-rule="evenodd" class="s9" d="m204.07 161.2l1.74-1.74c0.48-0.49 1.26-0.49 1.74 0l6.96 6.95c0.48 0.48 0.48 1.26 0 1.74l-1.74 1.74c-0.48 0.48-1.26 0.48-1.74 0l-6.96-6.96c-0.48-0.48-0.48-1.25 0-1.73z" />
                <path fill-rule="evenodd" class="s10" d="m120.72 180.05c-1.7 0-3.08-1.37-3.08-3.07 0-1.7 1.38-3.08 3.08-3.08 1.7 0 3.08 1.38 3.08 3.08 0 1.7-1.38 3.07-3.08 3.07z" />
                <path class="s11" d="m139.17 232.33q9.23-6.15 18.46 3.08" />
                <path class="s12" d="m34.61 53.96q12.3-12.3 18.45 6.15 6.15 18.45 12.3-12.3" />
            </g>
            <g id="confetti-green">
                <path fill-rule="evenodd" class="s13" d="m53.06 70.57c-2.38 0-4.3-1.93-4.3-4.31 0-2.38 1.92-4.3 4.3-4.3 2.38 0 4.31 1.92 4.31 4.3 0 2.38-1.93 4.31-4.31 4.31z" />
                <path fill-rule="evenodd" class="s13" d="m162.71 23.38l2.22 1.04c0.93 0.43 1.33 1.53 0.9 2.45l-4.94 10.59c-0.43 0.92-1.53 1.32-2.45 0.89l-2.23-1.04c-0.93-0.43-1.33-1.53-0.9-2.45l4.94-10.59c0.43-0.92 1.53-1.32 2.46-0.89z" />
                <path fill-rule="evenodd" class="s13" d="m231.72 110.13l3.47-1.26c0.64-0.23 1.35 0.1 1.58 0.74l1.26 3.46c0.23 0.64-0.1 1.35-0.73 1.58l-3.47 1.26c-0.64 0.24-1.35-0.09-1.58-0.73l-1.26-3.47c-0.23-0.64 0.1-1.34 0.73-1.58z" />
                <path fill-rule="evenodd" class="s13" d="m65.12 221.07l1.58 1.88c0.44 0.52 0.37 1.3-0.15 1.73l-6.59 5.54c-0.52 0.44-1.3 0.37-1.74-0.15l-1.58-1.89c-0.44-0.52-0.37-1.29 0.15-1.73l6.6-5.53c0.52-0.44 1.3-0.37 1.73 0.15z" />
                <path fill-rule="evenodd" class="s14" d="m182.23 124.69c-1.7 0-3.08-1.37-3.08-3.07 0-1.7 1.38-3.08 3.08-3.08 1.7 0 3.07 1.38 3.07 3.08 0 1.7-1.37 3.07-3.07 3.07z" />
                <path class="s15" d="m77.66 226.18q6.16 12.3 18.46 6.15" />
            </g>
            <g id="confetti-purple">
                <path fill-rule="evenodd" class="s16" d="m103.82 51.17l0.53 3.03c0.12 0.67-0.33 1.31-1 1.43l-8.48 1.49c-0.67 0.12-1.31-0.33-1.42-1l-0.54-3.03c-0.12-0.66 0.33-1.3 1-1.42l8.48-1.5c0.67-0.11 1.31 0.33 1.43 1z" />
                <path fill-rule="evenodd" class="s16" d="m212.98 32.43c-1.7 0-3.07-1.37-3.07-3.07 0-1.7 1.37-3.08 3.07-3.08 1.7 0 3.08 1.38 3.08 3.08 0 1.7-1.38 3.07-3.08 3.07z" />
                <path fill-rule="evenodd" class="s16" d="m18.12 157.39l1.04-2.23c0.28-0.61 1.01-0.88 1.63-0.59l10.03 4.68c0.62 0.29 0.89 1.02 0.6 1.63l-1.04 2.23c-0.29 0.62-1.02 0.89-1.64 0.6l-10.03-4.68c-0.62-0.29-0.88-1.02-0.59-1.64z" />
                <path fill-rule="evenodd" class="s16" d="m141.44 78.05l4.75 1.28c0.66 0.17 1.05 0.85 0.87 1.5l-1.27 4.76c-0.17 0.65-0.85 1.04-1.51 0.86l-4.75-1.27c-0.65-0.17-1.04-0.85-0.87-1.51l1.28-4.75c0.17-0.65 0.85-1.04 1.5-0.87z" />
                <path fill-rule="evenodd" class="s16" d="m231.44 205.89c-2.39 0-4.31-1.93-4.31-4.31 0-2.38 1.92-4.31 4.31-4.31 2.38 0 4.3 1.93 4.3 4.31 0 2.38-1.92 4.31-4.3 4.31z" />
                <path fill-rule="evenodd" class="s16" d="m100.12 208.31l9.93 4.91-10.65 6.15z" />
                <path class="s17" d="m46.91 164.67q12.3 12.31 6.15 24.61-6.15 12.3 18.45-6.15" />
            </g>
            <g id="confetti-blue">
                <path fill-rule="evenodd" class="s18" d="m57.03 104.86l1.41-1.19c0.52-0.44 1.3-0.37 1.73 0.15l5.54 6.6c0.44 0.52 0.37 1.3-0.15 1.73l-1.42 1.19c-0.52 0.43-1.29 0.37-1.73-0.15l-5.53-6.6c-0.44-0.52-0.37-1.3 0.15-1.73z" />
                <path fill-rule="evenodd" class="s18" d="m169.93 63.8c-2.04 0-3.69-1.65-3.69-3.69 0-2.04 1.65-3.69 3.69-3.69 2.04 0 3.69 1.65 3.69 3.69 0 2.04-1.65 3.69-3.69 3.69z" />
                <path fill-rule="evenodd" class="s18" d="m207.47 86.33l1.42 2.01c0.39 0.56 0.25 1.33-0.31 1.72l-8.06 5.64c-0.55 0.39-1.32 0.26-1.71-0.3l-1.41-2.02c-0.39-0.55-0.26-1.32 0.3-1.71l8.06-5.64c0.56-0.39 1.32-0.26 1.71 0.3z" />
                <path fill-rule="evenodd" class="s18" d="m100.06 145.82l2.61 2.61c0.48 0.48 0.48 1.26 0 1.74l-2.61 2.61c-0.48 0.48-1.26 0.48-1.74 0l-2.61-2.61c-0.48-0.48-0.48-1.26 0-1.74l2.61-2.61c0.48-0.48 1.26-0.48 1.74 0z" />
                <path fill-rule="evenodd" class="s18" d="m34.61 204.65c-1.7 0-3.08-1.37-3.08-3.07 0-1.7 1.38-3.08 3.08-3.08 1.7 0 3.07 1.38 3.07 3.08 0 1.7-1.37 3.07-3.07 3.07z" />
                <path class="s19" d="m176.08 170.83q12.3 9.22 6.15 18.45" />
                <path class="s20" d="m212.98 47.81q12.3 12.3 6.15 24.6-6.15 12.3 18.46-6.15" />
            </g>
        </g>
    </g>
</svg>
